G04 #@! TF.GenerationSoftware,KiCad,Pcbnew,8.0.2*
G04 #@! TF.CreationDate,2024-07-19T17:57:26-05:00*
G04 #@! TF.ProjectId,syringe_pump_circuit,73797269-6e67-4655-9f70-756d705f6369,rev?*
G04 #@! TF.SameCoordinates,Original*
G04 #@! TF.FileFunction,Legend,Top*
G04 #@! TF.FilePolarity,Positive*
%FSLAX46Y46*%
G04 Gerber Fmt 4.6, Leading zero omitted, Abs format (unit mm)*
G04 Created by KiCad (PCBNEW 8.0.2) date 2024-07-19 17:57:26*
%MOMM*%
%LPD*%
G01*
G04 APERTURE LIST*
%ADD10C,0.250000*%
%ADD11C,0.300000*%
%ADD12C,0.100000*%
%ADD13C,0.150000*%
%ADD14C,0.120000*%
G04 APERTURE END LIST*
D10*
X188026377Y-69212238D02*
X187931139Y-69164619D01*
X187931139Y-69164619D02*
X187788282Y-69164619D01*
X187788282Y-69164619D02*
X187645425Y-69212238D01*
X187645425Y-69212238D02*
X187550187Y-69307476D01*
X187550187Y-69307476D02*
X187502568Y-69402714D01*
X187502568Y-69402714D02*
X187454949Y-69593190D01*
X187454949Y-69593190D02*
X187454949Y-69736047D01*
X187454949Y-69736047D02*
X187502568Y-69926523D01*
X187502568Y-69926523D02*
X187550187Y-70021761D01*
X187550187Y-70021761D02*
X187645425Y-70117000D01*
X187645425Y-70117000D02*
X187788282Y-70164619D01*
X187788282Y-70164619D02*
X187883520Y-70164619D01*
X187883520Y-70164619D02*
X188026377Y-70117000D01*
X188026377Y-70117000D02*
X188073996Y-70069380D01*
X188073996Y-70069380D02*
X188073996Y-69736047D01*
X188073996Y-69736047D02*
X187883520Y-69736047D01*
X188502568Y-70164619D02*
X188502568Y-69164619D01*
X188502568Y-69164619D02*
X189073996Y-70164619D01*
X189073996Y-70164619D02*
X189073996Y-69164619D01*
X189550187Y-70164619D02*
X189550187Y-69164619D01*
X189550187Y-69164619D02*
X189788282Y-69164619D01*
X189788282Y-69164619D02*
X189931139Y-69212238D01*
X189931139Y-69212238D02*
X190026377Y-69307476D01*
X190026377Y-69307476D02*
X190073996Y-69402714D01*
X190073996Y-69402714D02*
X190121615Y-69593190D01*
X190121615Y-69593190D02*
X190121615Y-69736047D01*
X190121615Y-69736047D02*
X190073996Y-69926523D01*
X190073996Y-69926523D02*
X190026377Y-70021761D01*
X190026377Y-70021761D02*
X189931139Y-70117000D01*
X189931139Y-70117000D02*
X189788282Y-70164619D01*
X189788282Y-70164619D02*
X189550187Y-70164619D01*
D11*
X192114484Y-114516917D02*
X192185912Y-114302632D01*
X192185912Y-114302632D02*
X192185912Y-113945489D01*
X192185912Y-113945489D02*
X192114484Y-113802632D01*
X192114484Y-113802632D02*
X192043055Y-113731203D01*
X192043055Y-113731203D02*
X191900198Y-113659774D01*
X191900198Y-113659774D02*
X191757341Y-113659774D01*
X191757341Y-113659774D02*
X191614484Y-113731203D01*
X191614484Y-113731203D02*
X191543055Y-113802632D01*
X191543055Y-113802632D02*
X191471626Y-113945489D01*
X191471626Y-113945489D02*
X191400198Y-114231203D01*
X191400198Y-114231203D02*
X191328769Y-114374060D01*
X191328769Y-114374060D02*
X191257341Y-114445489D01*
X191257341Y-114445489D02*
X191114484Y-114516917D01*
X191114484Y-114516917D02*
X190971626Y-114516917D01*
X190971626Y-114516917D02*
X190828769Y-114445489D01*
X190828769Y-114445489D02*
X190757341Y-114374060D01*
X190757341Y-114374060D02*
X190685912Y-114231203D01*
X190685912Y-114231203D02*
X190685912Y-113874060D01*
X190685912Y-113874060D02*
X190757341Y-113659774D01*
X191185912Y-113231203D02*
X191185912Y-112659775D01*
X190685912Y-113016918D02*
X191971626Y-113016918D01*
X191971626Y-113016918D02*
X192114484Y-112945489D01*
X192114484Y-112945489D02*
X192185912Y-112802632D01*
X192185912Y-112802632D02*
X192185912Y-112659775D01*
X192114484Y-111588346D02*
X192185912Y-111731203D01*
X192185912Y-111731203D02*
X192185912Y-112016918D01*
X192185912Y-112016918D02*
X192114484Y-112159775D01*
X192114484Y-112159775D02*
X191971626Y-112231203D01*
X191971626Y-112231203D02*
X191400198Y-112231203D01*
X191400198Y-112231203D02*
X191257341Y-112159775D01*
X191257341Y-112159775D02*
X191185912Y-112016918D01*
X191185912Y-112016918D02*
X191185912Y-111731203D01*
X191185912Y-111731203D02*
X191257341Y-111588346D01*
X191257341Y-111588346D02*
X191400198Y-111516918D01*
X191400198Y-111516918D02*
X191543055Y-111516918D01*
X191543055Y-111516918D02*
X191685912Y-112231203D01*
X191185912Y-110874061D02*
X192685912Y-110874061D01*
X191257341Y-110874061D02*
X191185912Y-110731204D01*
X191185912Y-110731204D02*
X191185912Y-110445489D01*
X191185912Y-110445489D02*
X191257341Y-110302632D01*
X191257341Y-110302632D02*
X191328769Y-110231204D01*
X191328769Y-110231204D02*
X191471626Y-110159775D01*
X191471626Y-110159775D02*
X191900198Y-110159775D01*
X191900198Y-110159775D02*
X192043055Y-110231204D01*
X192043055Y-110231204D02*
X192114484Y-110302632D01*
X192114484Y-110302632D02*
X192185912Y-110445489D01*
X192185912Y-110445489D02*
X192185912Y-110731204D01*
X192185912Y-110731204D02*
X192114484Y-110874061D01*
X191185912Y-109516918D02*
X192685912Y-109516918D01*
X191257341Y-109516918D02*
X191185912Y-109374061D01*
X191185912Y-109374061D02*
X191185912Y-109088346D01*
X191185912Y-109088346D02*
X191257341Y-108945489D01*
X191257341Y-108945489D02*
X191328769Y-108874061D01*
X191328769Y-108874061D02*
X191471626Y-108802632D01*
X191471626Y-108802632D02*
X191900198Y-108802632D01*
X191900198Y-108802632D02*
X192043055Y-108874061D01*
X192043055Y-108874061D02*
X192114484Y-108945489D01*
X192114484Y-108945489D02*
X192185912Y-109088346D01*
X192185912Y-109088346D02*
X192185912Y-109374061D01*
X192185912Y-109374061D02*
X192114484Y-109516918D01*
X192114484Y-107588346D02*
X192185912Y-107731203D01*
X192185912Y-107731203D02*
X192185912Y-108016918D01*
X192185912Y-108016918D02*
X192114484Y-108159775D01*
X192114484Y-108159775D02*
X191971626Y-108231203D01*
X191971626Y-108231203D02*
X191400198Y-108231203D01*
X191400198Y-108231203D02*
X191257341Y-108159775D01*
X191257341Y-108159775D02*
X191185912Y-108016918D01*
X191185912Y-108016918D02*
X191185912Y-107731203D01*
X191185912Y-107731203D02*
X191257341Y-107588346D01*
X191257341Y-107588346D02*
X191400198Y-107516918D01*
X191400198Y-107516918D02*
X191543055Y-107516918D01*
X191543055Y-107516918D02*
X191685912Y-108231203D01*
X192185912Y-106874061D02*
X191185912Y-106874061D01*
X191471626Y-106874061D02*
X191328769Y-106802632D01*
X191328769Y-106802632D02*
X191257341Y-106731204D01*
X191257341Y-106731204D02*
X191185912Y-106588346D01*
X191185912Y-106588346D02*
X191185912Y-106445489D01*
X192043055Y-103945490D02*
X192114484Y-104016918D01*
X192114484Y-104016918D02*
X192185912Y-104231204D01*
X192185912Y-104231204D02*
X192185912Y-104374061D01*
X192185912Y-104374061D02*
X192114484Y-104588347D01*
X192114484Y-104588347D02*
X191971626Y-104731204D01*
X191971626Y-104731204D02*
X191828769Y-104802633D01*
X191828769Y-104802633D02*
X191543055Y-104874061D01*
X191543055Y-104874061D02*
X191328769Y-104874061D01*
X191328769Y-104874061D02*
X191043055Y-104802633D01*
X191043055Y-104802633D02*
X190900198Y-104731204D01*
X190900198Y-104731204D02*
X190757341Y-104588347D01*
X190757341Y-104588347D02*
X190685912Y-104374061D01*
X190685912Y-104374061D02*
X190685912Y-104231204D01*
X190685912Y-104231204D02*
X190757341Y-104016918D01*
X190757341Y-104016918D02*
X190828769Y-103945490D01*
X192185912Y-103088347D02*
X192114484Y-103231204D01*
X192114484Y-103231204D02*
X192043055Y-103302633D01*
X192043055Y-103302633D02*
X191900198Y-103374061D01*
X191900198Y-103374061D02*
X191471626Y-103374061D01*
X191471626Y-103374061D02*
X191328769Y-103302633D01*
X191328769Y-103302633D02*
X191257341Y-103231204D01*
X191257341Y-103231204D02*
X191185912Y-103088347D01*
X191185912Y-103088347D02*
X191185912Y-102874061D01*
X191185912Y-102874061D02*
X191257341Y-102731204D01*
X191257341Y-102731204D02*
X191328769Y-102659776D01*
X191328769Y-102659776D02*
X191471626Y-102588347D01*
X191471626Y-102588347D02*
X191900198Y-102588347D01*
X191900198Y-102588347D02*
X192043055Y-102659776D01*
X192043055Y-102659776D02*
X192114484Y-102731204D01*
X192114484Y-102731204D02*
X192185912Y-102874061D01*
X192185912Y-102874061D02*
X192185912Y-103088347D01*
X191185912Y-101945490D02*
X192185912Y-101945490D01*
X191328769Y-101945490D02*
X191257341Y-101874061D01*
X191257341Y-101874061D02*
X191185912Y-101731204D01*
X191185912Y-101731204D02*
X191185912Y-101516918D01*
X191185912Y-101516918D02*
X191257341Y-101374061D01*
X191257341Y-101374061D02*
X191400198Y-101302633D01*
X191400198Y-101302633D02*
X192185912Y-101302633D01*
X191185912Y-100802632D02*
X191185912Y-100231204D01*
X190685912Y-100588347D02*
X191971626Y-100588347D01*
X191971626Y-100588347D02*
X192114484Y-100516918D01*
X192114484Y-100516918D02*
X192185912Y-100374061D01*
X192185912Y-100374061D02*
X192185912Y-100231204D01*
X192185912Y-99731204D02*
X191185912Y-99731204D01*
X191471626Y-99731204D02*
X191328769Y-99659775D01*
X191328769Y-99659775D02*
X191257341Y-99588347D01*
X191257341Y-99588347D02*
X191185912Y-99445489D01*
X191185912Y-99445489D02*
X191185912Y-99302632D01*
X192185912Y-98588347D02*
X192114484Y-98731204D01*
X192114484Y-98731204D02*
X192043055Y-98802633D01*
X192043055Y-98802633D02*
X191900198Y-98874061D01*
X191900198Y-98874061D02*
X191471626Y-98874061D01*
X191471626Y-98874061D02*
X191328769Y-98802633D01*
X191328769Y-98802633D02*
X191257341Y-98731204D01*
X191257341Y-98731204D02*
X191185912Y-98588347D01*
X191185912Y-98588347D02*
X191185912Y-98374061D01*
X191185912Y-98374061D02*
X191257341Y-98231204D01*
X191257341Y-98231204D02*
X191328769Y-98159776D01*
X191328769Y-98159776D02*
X191471626Y-98088347D01*
X191471626Y-98088347D02*
X191900198Y-98088347D01*
X191900198Y-98088347D02*
X192043055Y-98159776D01*
X192043055Y-98159776D02*
X192114484Y-98231204D01*
X192114484Y-98231204D02*
X192185912Y-98374061D01*
X192185912Y-98374061D02*
X192185912Y-98588347D01*
X192185912Y-97231204D02*
X192114484Y-97374061D01*
X192114484Y-97374061D02*
X191971626Y-97445490D01*
X191971626Y-97445490D02*
X190685912Y-97445490D01*
X192185912Y-96445490D02*
X192114484Y-96588347D01*
X192114484Y-96588347D02*
X191971626Y-96659776D01*
X191971626Y-96659776D02*
X190685912Y-96659776D01*
X192114484Y-95302633D02*
X192185912Y-95445490D01*
X192185912Y-95445490D02*
X192185912Y-95731205D01*
X192185912Y-95731205D02*
X192114484Y-95874062D01*
X192114484Y-95874062D02*
X191971626Y-95945490D01*
X191971626Y-95945490D02*
X191400198Y-95945490D01*
X191400198Y-95945490D02*
X191257341Y-95874062D01*
X191257341Y-95874062D02*
X191185912Y-95731205D01*
X191185912Y-95731205D02*
X191185912Y-95445490D01*
X191185912Y-95445490D02*
X191257341Y-95302633D01*
X191257341Y-95302633D02*
X191400198Y-95231205D01*
X191400198Y-95231205D02*
X191543055Y-95231205D01*
X191543055Y-95231205D02*
X191685912Y-95945490D01*
X192185912Y-94588348D02*
X191185912Y-94588348D01*
X191471626Y-94588348D02*
X191328769Y-94516919D01*
X191328769Y-94516919D02*
X191257341Y-94445491D01*
X191257341Y-94445491D02*
X191185912Y-94302633D01*
X191185912Y-94302633D02*
X191185912Y-94159776D01*
X193815114Y-113945489D02*
X193886542Y-113731203D01*
X193886542Y-113731203D02*
X193957971Y-113659774D01*
X193957971Y-113659774D02*
X194100828Y-113588346D01*
X194100828Y-113588346D02*
X194315114Y-113588346D01*
X194315114Y-113588346D02*
X194457971Y-113659774D01*
X194457971Y-113659774D02*
X194529400Y-113731203D01*
X194529400Y-113731203D02*
X194600828Y-113874060D01*
X194600828Y-113874060D02*
X194600828Y-114445489D01*
X194600828Y-114445489D02*
X193100828Y-114445489D01*
X193100828Y-114445489D02*
X193100828Y-113945489D01*
X193100828Y-113945489D02*
X193172257Y-113802632D01*
X193172257Y-113802632D02*
X193243685Y-113731203D01*
X193243685Y-113731203D02*
X193386542Y-113659774D01*
X193386542Y-113659774D02*
X193529400Y-113659774D01*
X193529400Y-113659774D02*
X193672257Y-113731203D01*
X193672257Y-113731203D02*
X193743685Y-113802632D01*
X193743685Y-113802632D02*
X193815114Y-113945489D01*
X193815114Y-113945489D02*
X193815114Y-114445489D01*
X193600828Y-113088346D02*
X194600828Y-112731203D01*
X193600828Y-112374060D02*
X194600828Y-112731203D01*
X194600828Y-112731203D02*
X194957971Y-112874060D01*
X194957971Y-112874060D02*
X195029400Y-112945489D01*
X195029400Y-112945489D02*
X195100828Y-113088346D01*
X194457971Y-111802632D02*
X194529400Y-111731203D01*
X194529400Y-111731203D02*
X194600828Y-111802632D01*
X194600828Y-111802632D02*
X194529400Y-111874060D01*
X194529400Y-111874060D02*
X194457971Y-111802632D01*
X194457971Y-111802632D02*
X194600828Y-111802632D01*
X193672257Y-111802632D02*
X193743685Y-111731203D01*
X193743685Y-111731203D02*
X193815114Y-111802632D01*
X193815114Y-111802632D02*
X193743685Y-111874060D01*
X193743685Y-111874060D02*
X193672257Y-111802632D01*
X193672257Y-111802632D02*
X193815114Y-111802632D01*
X193100828Y-110088346D02*
X194600828Y-109731203D01*
X194600828Y-109731203D02*
X193529400Y-109445489D01*
X193529400Y-109445489D02*
X194600828Y-109159774D01*
X194600828Y-109159774D02*
X193100828Y-108802632D01*
X194600828Y-108231203D02*
X193600828Y-108231203D01*
X193100828Y-108231203D02*
X193172257Y-108302631D01*
X193172257Y-108302631D02*
X193243685Y-108231203D01*
X193243685Y-108231203D02*
X193172257Y-108159774D01*
X193172257Y-108159774D02*
X193100828Y-108231203D01*
X193100828Y-108231203D02*
X193243685Y-108231203D01*
X194600828Y-107302631D02*
X194529400Y-107445488D01*
X194529400Y-107445488D02*
X194386542Y-107516917D01*
X194386542Y-107516917D02*
X193100828Y-107516917D01*
X194600828Y-106516917D02*
X194529400Y-106659774D01*
X194529400Y-106659774D02*
X194386542Y-106731203D01*
X194386542Y-106731203D02*
X193100828Y-106731203D01*
X194600828Y-104802632D02*
X193100828Y-104802632D01*
X193100828Y-104802632D02*
X194172257Y-104302632D01*
X194172257Y-104302632D02*
X193100828Y-103802632D01*
X193100828Y-103802632D02*
X194600828Y-103802632D01*
X194529400Y-102445489D02*
X194600828Y-102588346D01*
X194600828Y-102588346D02*
X194600828Y-102874060D01*
X194600828Y-102874060D02*
X194529400Y-103016917D01*
X194529400Y-103016917D02*
X194457971Y-103088346D01*
X194457971Y-103088346D02*
X194315114Y-103159774D01*
X194315114Y-103159774D02*
X193886542Y-103159774D01*
X193886542Y-103159774D02*
X193743685Y-103088346D01*
X193743685Y-103088346D02*
X193672257Y-103016917D01*
X193672257Y-103016917D02*
X193600828Y-102874060D01*
X193600828Y-102874060D02*
X193600828Y-102588346D01*
X193600828Y-102588346D02*
X193672257Y-102445489D01*
X194600828Y-101802632D02*
X193100828Y-101802632D01*
X194600828Y-100945489D02*
X193743685Y-101588346D01*
X193100828Y-100945489D02*
X193957971Y-101802632D01*
X194529400Y-99731203D02*
X194600828Y-99874060D01*
X194600828Y-99874060D02*
X194600828Y-100159775D01*
X194600828Y-100159775D02*
X194529400Y-100302632D01*
X194529400Y-100302632D02*
X194386542Y-100374060D01*
X194386542Y-100374060D02*
X193815114Y-100374060D01*
X193815114Y-100374060D02*
X193672257Y-100302632D01*
X193672257Y-100302632D02*
X193600828Y-100159775D01*
X193600828Y-100159775D02*
X193600828Y-99874060D01*
X193600828Y-99874060D02*
X193672257Y-99731203D01*
X193672257Y-99731203D02*
X193815114Y-99659775D01*
X193815114Y-99659775D02*
X193957971Y-99659775D01*
X193957971Y-99659775D02*
X194100828Y-100374060D01*
X194600828Y-98802632D02*
X194529400Y-98945489D01*
X194529400Y-98945489D02*
X194386542Y-99016918D01*
X194386542Y-99016918D02*
X193100828Y-99016918D01*
X193600828Y-98374061D02*
X194600828Y-98016918D01*
X194600828Y-98016918D02*
X193600828Y-97659775D01*
X194529400Y-96516918D02*
X194600828Y-96659775D01*
X194600828Y-96659775D02*
X194600828Y-96945490D01*
X194600828Y-96945490D02*
X194529400Y-97088347D01*
X194529400Y-97088347D02*
X194386542Y-97159775D01*
X194386542Y-97159775D02*
X193815114Y-97159775D01*
X193815114Y-97159775D02*
X193672257Y-97088347D01*
X193672257Y-97088347D02*
X193600828Y-96945490D01*
X193600828Y-96945490D02*
X193600828Y-96659775D01*
X193600828Y-96659775D02*
X193672257Y-96516918D01*
X193672257Y-96516918D02*
X193815114Y-96445490D01*
X193815114Y-96445490D02*
X193957971Y-96445490D01*
X193957971Y-96445490D02*
X194100828Y-97159775D01*
X193600828Y-95945490D02*
X194600828Y-95588347D01*
X193600828Y-95231204D02*
X194600828Y-95588347D01*
X194600828Y-95588347D02*
X194957971Y-95731204D01*
X194957971Y-95731204D02*
X195029400Y-95802633D01*
X195029400Y-95802633D02*
X195100828Y-95945490D01*
D12*
X182132455Y-43420038D02*
X182037217Y-43372419D01*
X182037217Y-43372419D02*
X181894360Y-43372419D01*
X181894360Y-43372419D02*
X181751503Y-43420038D01*
X181751503Y-43420038D02*
X181656265Y-43515276D01*
X181656265Y-43515276D02*
X181608646Y-43610514D01*
X181608646Y-43610514D02*
X181561027Y-43800990D01*
X181561027Y-43800990D02*
X181561027Y-43943847D01*
X181561027Y-43943847D02*
X181608646Y-44134323D01*
X181608646Y-44134323D02*
X181656265Y-44229561D01*
X181656265Y-44229561D02*
X181751503Y-44324800D01*
X181751503Y-44324800D02*
X181894360Y-44372419D01*
X181894360Y-44372419D02*
X181989598Y-44372419D01*
X181989598Y-44372419D02*
X182132455Y-44324800D01*
X182132455Y-44324800D02*
X182180074Y-44277180D01*
X182180074Y-44277180D02*
X182180074Y-43943847D01*
X182180074Y-43943847D02*
X181989598Y-43943847D01*
X182608646Y-44372419D02*
X182608646Y-43372419D01*
X182608646Y-43372419D02*
X183180074Y-44372419D01*
X183180074Y-44372419D02*
X183180074Y-43372419D01*
X183656265Y-44372419D02*
X183656265Y-43372419D01*
X183656265Y-43372419D02*
X183894360Y-43372419D01*
X183894360Y-43372419D02*
X184037217Y-43420038D01*
X184037217Y-43420038D02*
X184132455Y-43515276D01*
X184132455Y-43515276D02*
X184180074Y-43610514D01*
X184180074Y-43610514D02*
X184227693Y-43800990D01*
X184227693Y-43800990D02*
X184227693Y-43943847D01*
X184227693Y-43943847D02*
X184180074Y-44134323D01*
X184180074Y-44134323D02*
X184132455Y-44229561D01*
X184132455Y-44229561D02*
X184037217Y-44324800D01*
X184037217Y-44324800D02*
X183894360Y-44372419D01*
X183894360Y-44372419D02*
X183656265Y-44372419D01*
X182799122Y-50586704D02*
X183275312Y-50586704D01*
X182703884Y-50872419D02*
X183037217Y-49872419D01*
X183037217Y-49872419D02*
X183370550Y-50872419D01*
X183656265Y-49967657D02*
X183703884Y-49920038D01*
X183703884Y-49920038D02*
X183799122Y-49872419D01*
X183799122Y-49872419D02*
X184037217Y-49872419D01*
X184037217Y-49872419D02*
X184132455Y-49920038D01*
X184132455Y-49920038D02*
X184180074Y-49967657D01*
X184180074Y-49967657D02*
X184227693Y-50062895D01*
X184227693Y-50062895D02*
X184227693Y-50158133D01*
X184227693Y-50158133D02*
X184180074Y-50300990D01*
X184180074Y-50300990D02*
X183608646Y-50872419D01*
X183608646Y-50872419D02*
X184227693Y-50872419D01*
X183037217Y-58148609D02*
X183180074Y-58196228D01*
X183180074Y-58196228D02*
X183227693Y-58243847D01*
X183227693Y-58243847D02*
X183275312Y-58339085D01*
X183275312Y-58339085D02*
X183275312Y-58481942D01*
X183275312Y-58481942D02*
X183227693Y-58577180D01*
X183227693Y-58577180D02*
X183180074Y-58624800D01*
X183180074Y-58624800D02*
X183084836Y-58672419D01*
X183084836Y-58672419D02*
X182703884Y-58672419D01*
X182703884Y-58672419D02*
X182703884Y-57672419D01*
X182703884Y-57672419D02*
X183037217Y-57672419D01*
X183037217Y-57672419D02*
X183132455Y-57720038D01*
X183132455Y-57720038D02*
X183180074Y-57767657D01*
X183180074Y-57767657D02*
X183227693Y-57862895D01*
X183227693Y-57862895D02*
X183227693Y-57958133D01*
X183227693Y-57958133D02*
X183180074Y-58053371D01*
X183180074Y-58053371D02*
X183132455Y-58100990D01*
X183132455Y-58100990D02*
X183037217Y-58148609D01*
X183037217Y-58148609D02*
X182703884Y-58148609D01*
X183656265Y-57767657D02*
X183703884Y-57720038D01*
X183703884Y-57720038D02*
X183799122Y-57672419D01*
X183799122Y-57672419D02*
X184037217Y-57672419D01*
X184037217Y-57672419D02*
X184132455Y-57720038D01*
X184132455Y-57720038D02*
X184180074Y-57767657D01*
X184180074Y-57767657D02*
X184227693Y-57862895D01*
X184227693Y-57862895D02*
X184227693Y-57958133D01*
X184227693Y-57958133D02*
X184180074Y-58100990D01*
X184180074Y-58100990D02*
X183608646Y-58672419D01*
X183608646Y-58672419D02*
X184227693Y-58672419D01*
X183037217Y-55448609D02*
X183180074Y-55496228D01*
X183180074Y-55496228D02*
X183227693Y-55543847D01*
X183227693Y-55543847D02*
X183275312Y-55639085D01*
X183275312Y-55639085D02*
X183275312Y-55781942D01*
X183275312Y-55781942D02*
X183227693Y-55877180D01*
X183227693Y-55877180D02*
X183180074Y-55924800D01*
X183180074Y-55924800D02*
X183084836Y-55972419D01*
X183084836Y-55972419D02*
X182703884Y-55972419D01*
X182703884Y-55972419D02*
X182703884Y-54972419D01*
X182703884Y-54972419D02*
X183037217Y-54972419D01*
X183037217Y-54972419D02*
X183132455Y-55020038D01*
X183132455Y-55020038D02*
X183180074Y-55067657D01*
X183180074Y-55067657D02*
X183227693Y-55162895D01*
X183227693Y-55162895D02*
X183227693Y-55258133D01*
X183227693Y-55258133D02*
X183180074Y-55353371D01*
X183180074Y-55353371D02*
X183132455Y-55400990D01*
X183132455Y-55400990D02*
X183037217Y-55448609D01*
X183037217Y-55448609D02*
X182703884Y-55448609D01*
X184227693Y-55972419D02*
X183656265Y-55972419D01*
X183941979Y-55972419D02*
X183941979Y-54972419D01*
X183941979Y-54972419D02*
X183846741Y-55115276D01*
X183846741Y-55115276D02*
X183751503Y-55210514D01*
X183751503Y-55210514D02*
X183656265Y-55258133D01*
X182799122Y-53086704D02*
X183275312Y-53086704D01*
X182703884Y-53372419D02*
X183037217Y-52372419D01*
X183037217Y-52372419D02*
X183370550Y-53372419D01*
X184227693Y-53372419D02*
X183656265Y-53372419D01*
X183941979Y-53372419D02*
X183941979Y-52372419D01*
X183941979Y-52372419D02*
X183846741Y-52515276D01*
X183846741Y-52515276D02*
X183751503Y-52610514D01*
X183751503Y-52610514D02*
X183656265Y-52658133D01*
X182513408Y-40972419D02*
X182846741Y-41972419D01*
X182846741Y-41972419D02*
X183180074Y-40972419D01*
X183513408Y-41972419D02*
X183513408Y-40972419D01*
X183513408Y-40972419D02*
X183846741Y-41686704D01*
X183846741Y-41686704D02*
X184180074Y-40972419D01*
X184180074Y-40972419D02*
X184180074Y-41972419D01*
X178589598Y-61048609D02*
X178922931Y-61048609D01*
X179065788Y-61572419D02*
X178589598Y-61572419D01*
X178589598Y-61572419D02*
X178589598Y-60572419D01*
X178589598Y-60572419D02*
X179065788Y-60572419D01*
X179494360Y-61572419D02*
X179494360Y-60572419D01*
X179494360Y-60572419D02*
X180065788Y-61572419D01*
X180065788Y-61572419D02*
X180065788Y-60572419D01*
X180541979Y-61572419D02*
X180541979Y-60572419D01*
X180541979Y-60572419D02*
X180780074Y-60572419D01*
X180780074Y-60572419D02*
X180922931Y-60620038D01*
X180922931Y-60620038D02*
X181018169Y-60715276D01*
X181018169Y-60715276D02*
X181065788Y-60810514D01*
X181065788Y-60810514D02*
X181113407Y-61000990D01*
X181113407Y-61000990D02*
X181113407Y-61143847D01*
X181113407Y-61143847D02*
X181065788Y-61334323D01*
X181065788Y-61334323D02*
X181018169Y-61429561D01*
X181018169Y-61429561D02*
X180922931Y-61524800D01*
X180922931Y-61524800D02*
X180780074Y-61572419D01*
X180780074Y-61572419D02*
X180541979Y-61572419D01*
X181494360Y-61524800D02*
X181637217Y-61572419D01*
X181637217Y-61572419D02*
X181875312Y-61572419D01*
X181875312Y-61572419D02*
X181970550Y-61524800D01*
X181970550Y-61524800D02*
X182018169Y-61477180D01*
X182018169Y-61477180D02*
X182065788Y-61381942D01*
X182065788Y-61381942D02*
X182065788Y-61286704D01*
X182065788Y-61286704D02*
X182018169Y-61191466D01*
X182018169Y-61191466D02*
X181970550Y-61143847D01*
X181970550Y-61143847D02*
X181875312Y-61096228D01*
X181875312Y-61096228D02*
X181684836Y-61048609D01*
X181684836Y-61048609D02*
X181589598Y-61000990D01*
X181589598Y-61000990D02*
X181541979Y-60953371D01*
X181541979Y-60953371D02*
X181494360Y-60858133D01*
X181494360Y-60858133D02*
X181494360Y-60762895D01*
X181494360Y-60762895D02*
X181541979Y-60667657D01*
X181541979Y-60667657D02*
X181589598Y-60620038D01*
X181589598Y-60620038D02*
X181684836Y-60572419D01*
X181684836Y-60572419D02*
X181922931Y-60572419D01*
X181922931Y-60572419D02*
X182065788Y-60620038D01*
X182351503Y-60572419D02*
X182922931Y-60572419D01*
X182637217Y-61572419D02*
X182637217Y-60572419D01*
X183446741Y-60572419D02*
X183637217Y-60572419D01*
X183637217Y-60572419D02*
X183732455Y-60620038D01*
X183732455Y-60620038D02*
X183827693Y-60715276D01*
X183827693Y-60715276D02*
X183875312Y-60905752D01*
X183875312Y-60905752D02*
X183875312Y-61239085D01*
X183875312Y-61239085D02*
X183827693Y-61429561D01*
X183827693Y-61429561D02*
X183732455Y-61524800D01*
X183732455Y-61524800D02*
X183637217Y-61572419D01*
X183637217Y-61572419D02*
X183446741Y-61572419D01*
X183446741Y-61572419D02*
X183351503Y-61524800D01*
X183351503Y-61524800D02*
X183256265Y-61429561D01*
X183256265Y-61429561D02*
X183208646Y-61239085D01*
X183208646Y-61239085D02*
X183208646Y-60905752D01*
X183208646Y-60905752D02*
X183256265Y-60715276D01*
X183256265Y-60715276D02*
X183351503Y-60620038D01*
X183351503Y-60620038D02*
X183446741Y-60572419D01*
X184303884Y-61572419D02*
X184303884Y-60572419D01*
X184303884Y-60572419D02*
X184684836Y-60572419D01*
X184684836Y-60572419D02*
X184780074Y-60620038D01*
X184780074Y-60620038D02*
X184827693Y-60667657D01*
X184827693Y-60667657D02*
X184875312Y-60762895D01*
X184875312Y-60762895D02*
X184875312Y-60905752D01*
X184875312Y-60905752D02*
X184827693Y-61000990D01*
X184827693Y-61000990D02*
X184780074Y-61048609D01*
X184780074Y-61048609D02*
X184684836Y-61096228D01*
X184684836Y-61096228D02*
X184303884Y-61096228D01*
D13*
X183584819Y-106626666D02*
X183108628Y-106959999D01*
X183584819Y-107198094D02*
X182584819Y-107198094D01*
X182584819Y-107198094D02*
X182584819Y-106817142D01*
X182584819Y-106817142D02*
X182632438Y-106721904D01*
X182632438Y-106721904D02*
X182680057Y-106674285D01*
X182680057Y-106674285D02*
X182775295Y-106626666D01*
X182775295Y-106626666D02*
X182918152Y-106626666D01*
X182918152Y-106626666D02*
X183013390Y-106674285D01*
X183013390Y-106674285D02*
X183061009Y-106721904D01*
X183061009Y-106721904D02*
X183108628Y-106817142D01*
X183108628Y-106817142D02*
X183108628Y-107198094D01*
X183584819Y-105674285D02*
X183584819Y-106245713D01*
X183584819Y-105959999D02*
X182584819Y-105959999D01*
X182584819Y-105959999D02*
X182727676Y-106055237D01*
X182727676Y-106055237D02*
X182822914Y-106150475D01*
X182822914Y-106150475D02*
X182870533Y-106245713D01*
D14*
X170530000Y-42610000D02*
X170530000Y-60450000D01*
X170530000Y-40010000D02*
X170530000Y-41340000D01*
X169200000Y-40010000D02*
X170530000Y-40010000D01*
X167870000Y-60450000D02*
X170530000Y-60450000D01*
X167870000Y-42610000D02*
X170530000Y-42610000D01*
X167870000Y-42610000D02*
X167870000Y-60450000D01*
X186240000Y-49040000D02*
X192560000Y-49040000D01*
X186240000Y-62320000D02*
X186240000Y-49040000D01*
X186240000Y-62320000D02*
X192560000Y-62320000D01*
X186700000Y-62320000D02*
X186700000Y-49040000D01*
X192000000Y-62320000D02*
X192000000Y-49040000D01*
X192060000Y-62560000D02*
X192800000Y-62560000D01*
X192560000Y-62320000D02*
X192560000Y-49040000D01*
X192800000Y-62560000D02*
X192800000Y-62060000D01*
X155170000Y-42610000D02*
X155170000Y-60450000D01*
X155170000Y-42610000D02*
X157830000Y-42610000D01*
X155170000Y-60450000D02*
X157830000Y-60450000D01*
X156500000Y-40010000D02*
X157830000Y-40010000D01*
X157830000Y-40010000D02*
X157830000Y-41340000D01*
X157830000Y-42610000D02*
X157830000Y-60450000D01*
X172530000Y-81020000D02*
X172530000Y-126800000D01*
X172530000Y-81020000D02*
X175190000Y-81020000D01*
X172530000Y-126800000D02*
X175190000Y-126800000D01*
X173860000Y-78420000D02*
X175190000Y-78420000D01*
X175190000Y-78420000D02*
X175190000Y-79750000D01*
X175190000Y-81020000D02*
X175190000Y-126800000D01*
X149670000Y-124230000D02*
X149670000Y-78450000D01*
X149670000Y-126830000D02*
X149670000Y-125500000D01*
X151000000Y-126830000D02*
X149670000Y-126830000D01*
X152330000Y-78450000D02*
X149670000Y-78450000D01*
X152330000Y-124230000D02*
X149670000Y-124230000D01*
X152330000Y-124230000D02*
X152330000Y-78450000D01*
X185500000Y-107630000D02*
X185500000Y-105020000D01*
X186870000Y-109000000D02*
G75*
G02*
X184130000Y-109000000I-1370000J0D01*
G01*
X184130000Y-109000000D02*
G75*
G02*
X186870000Y-109000000I1370000J0D01*
G01*
X192800000Y-45700000D02*
X192800000Y-45200000D01*
X192560000Y-45460000D02*
X192560000Y-44690000D01*
X192560000Y-43110000D02*
X192560000Y-42150000D01*
X192560000Y-40570000D02*
X192560000Y-39800000D01*
X192060000Y-45700000D02*
X192800000Y-45700000D01*
X192000000Y-45460000D02*
X192000000Y-44690000D01*
X192000000Y-43110000D02*
X192000000Y-42150000D01*
X192000000Y-40570000D02*
X192000000Y-39800000D01*
X186700000Y-45460000D02*
X186700000Y-39800000D01*
X186240000Y-45460000D02*
X192560000Y-45460000D01*
X186240000Y-45460000D02*
X186240000Y-39800000D01*
X186240000Y-39800000D02*
X192560000Y-39800000D01*
M02*
