M48
; DRILL file {KiCad 8.0.2} date 2024-07-19T17:57:28-0500
; FORMAT={-:-/ absolute / inch / decimal}
; #@! TF.CreationDate,2024-07-19T17:57:28-05:00
; #@! TF.GenerationSoftware,Kicad,Pcbnew,8.0.2
; #@! TF.FileFunction,MixedPlating,1,2
FMAT,2
INCH
; #@! TA.AperFunction,Plated,PTH,ComponentDrill
T1C0.0315
; #@! TA.AperFunction,Plated,PTH,ComponentDrill
T2C0.0394
; #@! TA.AperFunction,Plated,PTH,ComponentDrill
T3C0.0433
; #@! TA.AperFunction,Plated,PTH,ComponentDrill
T4C0.1063
; #@! TA.AperFunction,NonPlated,NPTH,ComponentDrill
T5C0.0433
%
G90
G05
T1
X7.3031Y-4.0913
X7.3031Y-4.2913
T2
X5.9449Y-3.1409
X5.9449Y-3.2409
X5.9449Y-3.3409
X5.9449Y-3.4409
X5.9449Y-3.5409
X5.9449Y-3.6409
X5.9449Y-3.7409
X5.9449Y-3.8409
X5.9449Y-3.9409
X5.9449Y-4.0409
X5.9449Y-4.1409
X5.9449Y-4.2409
X5.9449Y-4.3409
X5.9449Y-4.4409
X5.9449Y-4.5409
X5.9449Y-4.6409
X5.9449Y-4.7409
X5.9449Y-4.8409
X5.9449Y-4.9409
X6.1614Y-1.6276
X6.1614Y-1.7276
X6.1614Y-1.8276
X6.1614Y-1.9276
X6.1614Y-2.0276
X6.1614Y-2.1276
X6.1614Y-2.2276
X6.1614Y-2.3276
X6.6614Y-1.6276
X6.6614Y-1.7276
X6.6614Y-1.8276
X6.6614Y-1.9276
X6.6614Y-2.0276
X6.6614Y-2.1276
X6.6614Y-2.2276
X6.6614Y-2.3276
X6.8449Y-3.1398
X6.8449Y-3.2398
X6.8449Y-3.3398
X6.8449Y-3.4398
X6.8449Y-3.5398
X6.8449Y-3.6398
X6.8449Y-3.7398
X6.8449Y-3.8398
X6.8449Y-3.9398
X6.8449Y-4.0398
X6.8449Y-4.1398
X6.8449Y-4.2398
X6.8449Y-4.3398
X6.8449Y-4.4398
X6.8449Y-4.5398
X6.8449Y-4.6398
X6.8449Y-4.7398
X6.8449Y-4.8398
X6.8449Y-4.9398
T3
X7.4567Y-1.6283
X7.4567Y-1.7283
X7.4567Y-1.9921
X7.4567Y-2.0921
X7.4567Y-2.1921
X7.4567Y-2.2921
X7.4567Y-2.3921
T4
X5.6811Y-4.8976
X5.685Y-1.7402
X7.437Y-2.8819
X7.437Y-4.8976
T5
X7.5567Y-1.6283
X7.5567Y-1.7283
M30
