G04 #@! TF.GenerationSoftware,KiCad,Pcbnew,8.0.2*
G04 #@! TF.CreationDate,2024-07-19T17:57:26-05:00*
G04 #@! TF.ProjectId,syringe_pump_circuit,73797269-6e67-4655-9f70-756d705f6369,rev?*
G04 #@! TF.SameCoordinates,Original*
G04 #@! TF.FileFunction,Copper,L1,Top*
G04 #@! TF.FilePolarity,Positive*
%FSLAX46Y46*%
G04 Gerber Fmt 4.6, Leading zero omitted, Abs format (unit mm)*
G04 Created by KiCad (PCBNEW 8.0.2) date 2024-07-19 17:57:26*
%MOMM*%
%LPD*%
G01*
G04 APERTURE LIST*
G04 #@! TA.AperFunction,ComponentPad*
%ADD10O,1.700000X1.700000*%
G04 #@! TD*
G04 #@! TA.AperFunction,ComponentPad*
%ADD11R,1.700000X1.700000*%
G04 #@! TD*
G04 #@! TA.AperFunction,ComponentPad*
%ADD12R,2.200000X2.200000*%
G04 #@! TD*
G04 #@! TA.AperFunction,ComponentPad*
%ADD13C,2.200000*%
G04 #@! TD*
G04 #@! TA.AperFunction,ComponentPad*
%ADD14C,4.700000*%
G04 #@! TD*
G04 #@! TA.AperFunction,ComponentPad*
%ADD15C,1.600000*%
G04 #@! TD*
G04 #@! TA.AperFunction,ComponentPad*
%ADD16O,1.600000X1.600000*%
G04 #@! TD*
G04 #@! TA.AperFunction,Conductor*
%ADD17C,0.200000*%
G04 #@! TD*
G04 #@! TA.AperFunction,Conductor*
%ADD18C,0.800000*%
G04 #@! TD*
G04 APERTURE END LIST*
D10*
X169200000Y-59120000D03*
X169200000Y-56580000D03*
X169200000Y-54040000D03*
X169200000Y-51500000D03*
X169200000Y-48960000D03*
X169200000Y-46420000D03*
X169200000Y-43880000D03*
D11*
X169200000Y-41340000D03*
D12*
X189400000Y-60760000D03*
D13*
X189400000Y-58220000D03*
X189400000Y-55680000D03*
X189400000Y-53140000D03*
X189400000Y-50600000D03*
D14*
X188898809Y-73200000D03*
D11*
X156500000Y-41340000D03*
D10*
X156500000Y-43880000D03*
X156500000Y-46420000D03*
X156500000Y-48960000D03*
X156500000Y-51500000D03*
X156500000Y-54040000D03*
X156500000Y-56580000D03*
X156500000Y-59120000D03*
D11*
X173860000Y-79750000D03*
D10*
X173860000Y-82290000D03*
X173860000Y-84830000D03*
X173860000Y-87370000D03*
X173860000Y-89910000D03*
X173860000Y-92450000D03*
X173860000Y-94990000D03*
X173860000Y-97530000D03*
X173860000Y-100070000D03*
X173860000Y-102610000D03*
X173860000Y-105150000D03*
X173860000Y-107690000D03*
X173860000Y-110230000D03*
X173860000Y-112770000D03*
X173860000Y-115310000D03*
X173860000Y-117850000D03*
X173860000Y-120390000D03*
X173860000Y-122930000D03*
X173860000Y-125470000D03*
D14*
X188900000Y-124400000D03*
D10*
X151000000Y-79780000D03*
X151000000Y-82320000D03*
X151000000Y-84860000D03*
X151000000Y-87400000D03*
X151000000Y-89940000D03*
X151000000Y-92480000D03*
X151000000Y-95020000D03*
X151000000Y-97560000D03*
X151000000Y-100100000D03*
X151000000Y-102640000D03*
X151000000Y-105180000D03*
X151000000Y-107720000D03*
X151000000Y-110260000D03*
X151000000Y-112800000D03*
X151000000Y-115340000D03*
X151000000Y-117880000D03*
X151000000Y-120420000D03*
X151000000Y-122960000D03*
D11*
X151000000Y-125500000D03*
D14*
X144300000Y-124400000D03*
D15*
X185500000Y-109000000D03*
D16*
X185500000Y-103920000D03*
D14*
X144400000Y-44200000D03*
D13*
X189400000Y-41360000D03*
D12*
X189400000Y-43900000D03*
D17*
X156500000Y-75090000D02*
X173860000Y-92450000D01*
X156500000Y-59120000D02*
X156500000Y-75090000D01*
X163400000Y-48240000D02*
X163400000Y-71830000D01*
X163400000Y-71830000D02*
X173860000Y-82290000D01*
X160100000Y-71070000D02*
X173860000Y-84830000D01*
X160100000Y-60180000D02*
X160100000Y-71070000D01*
X156500000Y-56580000D02*
X160100000Y-60180000D01*
X156500000Y-41340000D02*
X163400000Y-48240000D01*
X154000000Y-37900000D02*
X151000000Y-40900000D01*
X151000000Y-40900000D02*
X151000000Y-79780000D01*
X166900000Y-46600000D02*
X158200000Y-37900000D01*
X166900000Y-54280000D02*
X166900000Y-46600000D01*
X169200000Y-56580000D02*
X166900000Y-54280000D01*
X158200000Y-37900000D02*
X154000000Y-37900000D01*
X169200000Y-59120000D02*
X169200000Y-75090000D01*
X169200000Y-75090000D02*
X173860000Y-79750000D01*
X184270000Y-105150000D02*
X185500000Y-103920000D01*
X173860000Y-105150000D02*
X184270000Y-105150000D01*
X173860000Y-107690000D02*
X184190000Y-107690000D01*
X184190000Y-107690000D02*
X185500000Y-109000000D01*
X173860000Y-94990000D02*
X183810000Y-94990000D01*
X144400000Y-44200000D02*
X144400000Y-124300000D01*
X183810000Y-94990000D02*
X188900000Y-89900000D01*
X188900000Y-73200000D02*
X188900000Y-89900000D01*
X188820000Y-124320000D02*
X188900000Y-124400000D01*
X144380000Y-124320000D02*
X188820000Y-124320000D01*
X188900000Y-89900000D02*
X188900000Y-124400000D01*
D18*
X169200000Y-54040000D02*
X173380000Y-58220000D01*
X173380000Y-58220000D02*
X189400000Y-58220000D01*
X169200000Y-46420000D02*
X173380000Y-50600000D01*
X173380000Y-50600000D02*
X189400000Y-50600000D01*
X169200000Y-48960000D02*
X173380000Y-53140000D01*
X173380000Y-53140000D02*
X189400000Y-53140000D01*
X169200000Y-51500000D02*
X173380000Y-55680000D01*
X173380000Y-55680000D02*
X189400000Y-55680000D01*
X189400000Y-41360000D02*
X169220000Y-41360000D01*
D17*
X169220000Y-41360000D02*
X169200000Y-41340000D01*
D18*
X189400000Y-43900000D02*
X169220000Y-43900000D01*
D17*
X169220000Y-43900000D02*
X169200000Y-43880000D01*
M02*
